<svg xmlns="http://www.w3.org/2000/svg" viewBox="0 0 41 40" fill="none">
  <path d="M24.1831 16.0007H16.1225V24.0004H24.1831V16.0007Z" fill="hsl(210, 80%, 8%)"></path>
  <path d="M32.2436 5.44985V0H8.06062V5.44985C8.06062 6.8587 6.91086 7.99978 5.4913 7.99978H0V32.0002H5.4913C6.91086 32.0002 8.06062 33.1413 8.06062 34.5502V40H32.2436V34.5502C32.2436 33.1413 33.3934 32.0002 34.8129 32.0002H40.3042V7.99978H34.8129C33.3934 7.99978 32.2436 6.8587 32.2436 5.44985ZM32.2436 29.4492C32.2436 30.858 31.0939 31.9991 29.6743 31.9991H10.6311C9.2115 31.9991 8.06174 30.858 8.06174 29.4492V10.5497C8.06174 9.14086 9.2115 7.99978 10.6311 7.99978H29.6743C31.0939 7.99978 32.2436 9.14086 32.2436 10.5497V29.4492Z" fill="#161616"></path>
</svg>